PathFileType	4	(X/Y/Z)	/tmp/tmp8evqqdi7//results/MarkerData/Run_5.trc
DataRate	CameraRate	NumFrames	NumMarkers	Units	OrigDataRate	OrigDataStartFrame	OrigNumFrames
100	100	9	42	m	100	68	544
Frame#	Time	C7			CLAV			LACR			LASI			LCAL			LFAradius			LFAsuperior			LFAulna			LLEL			LMEL			LMT5			LPSI			LTB1			LTB2			LTB3			LTH1			LTH2			LTH3			LTOE			LUA1			LUA2			LUA3			RACR			RASI			RCAL			RFAradius			RFAsuperior			RFAulna			RLEL			RMEL			RMT5			RPSI			RTB1			RTB2			RTB3			RTH1			RTH2			RTH3			RTOE			RUA1			RUA2			RUA3		
		X1	Y1	Z1	X2	Y2	Z2	X3	Y3	Z3	X4	Y4	Z4	X5	Y5	Z5	X6	Y6	Z6	X7	Y7	Z7	X8	Y8	Z8	X9	Y9	Z9	X10	Y10	Z10	X11	Y11	Z11	X12	Y12	Z12	X13	Y13	Z13	X14	Y14	Z14	X15	Y15	Z15	X16	Y16	Z16	X17	Y17	Z17	X18	Y18	Z18	X19	Y19	Z19	X20	Y20	Z20	X21	Y21	Z21	X22	Y22	Z22	X23	Y23	Z23	X24	Y24	Z24	X25	Y25	Z25	X26	Y26	Z26	X27	Y27	Z27	X28	Y28	Z28	X29	Y29	Z29	X30	Y30	Z30	X31	Y31	Z31	X32	Y32	Z32	X33	Y33	Z33	X34	Y34	Z34	X35	Y35	Z35	X36	Y36	Z36	X37	Y37	Z37	X38	Y38	Z38	X39	Y39	Z39	X40	Y40	Z40	X41	Y41	Z41	X42	Y42	Z42

69	0.71	0.808771	1.44928	-0.301054	0.945327	1.34185	-0.287458	0.864066	1.41861	-0.454857	0.825044	0.935583	-0.43217	0.345921	0.161574	-0.300853	1.04672	1.15121	-0.509177	0.947353	1.17171	-0.609689	1.0663	1.11732	-0.568549	0.840594	1.14638	-0.658647	0.8164	1.10117	-0.603103	0.481176	0.0481281	-0.397865	0.674066	0.99767	-0.347049	0.656388	0.334721	-0.35205	0.56154	0.299531	-0.399847	0.513224	0.20628	-0.320202	0.748146	0.737833	-0.47024	0.779005	0.623712	-0.450923	0.697868	0.529255	-0.428108	0.5393	0.0619284	-0.299011	0.834182	1.31277	-0.558882	0.790744	1.23836	-0.549616	0.843669	1.22147	-0.613084	0.860607	1.41464	-0.154795	0.848044	0.941103	-0.190028	0.681354	0.487462	-0.244517	0.774206	1.07028	-0.0516415	0.684373	1.15588	0.00710707	0.721723	1.03053	-0.0238023	0.607715	1.24407	-0.00627847	0.584628	1.22728	-0.0788072	0.709392	0.310152	-0.149007	0.676824	0.990374	-0.247594	1.00037	0.509522	-0.223549	0.915355	0.506544	-0.171826	0.820673	0.44258	-0.228465	0.898931	0.75981	-0.1286	1.00573	0.75006	-0.14014	1.03095	0.653163	-0.149911	0.742241	0.276555	-0.248796	0.768109	1.35323	-0.0622462	0.685887	1.33372	-0.103976	0.670541	1.27844	-0.0297047
70	0.72	0.809411	1.45369	-0.300323	0.945741	1.34663	-0.2849	0.867727	1.42446	-0.45247	0.826256	0.936663	-0.433766	0.30962	0.179058	-0.3067	1.05558	1.17183	-0.498043	0.96022	1.18318	-0.603842	1.08027	1.13604	-0.555381	0.857271	1.15178	-0.657269	0.832067	1.10606	-0.602151	0.430368	0.0472726	-0.398551	0.676941	0.99937	-0.345981	0.618096	0.342861	-0.354468	0.523042	0.312935	-0.404877	0.475421	0.217019	-0.326912	0.738323	0.742055	-0.468503	0.760247	0.626198	-0.451736	0.671969	0.537104	-0.430256	0.489316	0.0607496	-0.299776	0.841941	1.31845	-0.557114	0.799353	1.2443	-0.55272	0.857697	1.22782	-0.611972	0.859591	1.41911	-0.153811	0.853439	0.947895	-0.191199	0.712684	0.447416	-0.246789	0.760586	1.0782	-0.0529117	0.672084	1.16701	0.00289051	0.705724	1.0399	-0.0274502	0.599522	1.25864	-0.0125742	0.578164	1.24264	-0.0859814	0.772152	0.276963	-0.153361	0.679051	0.995062	-0.246571	1.02641	0.517928	-0.225063	0.942871	0.502624	-0.174216	0.858658	0.425248	-0.231265	0.906439	0.77322	-0.127043	1.01264	0.768047	-0.140969	1.04062	0.670956	-0.152438	0.811707	0.250847	-0.25377	0.765525	1.36089	-0.0628372	0.685042	1.34409	-0.108167	0.664741	1.29066	-0.0343525
71	0.73	0.810558	1.45838	-0.300117	0.946003	1.35151	-0.282326	0.871444	1.43039	-0.450058	0.828313	0.937847	-0.434627	0.278745	0.198081	-0.314478	1.06177	1.19163	-0.487416	0.971265	1.19481	-0.597371	1.09161	1.1549	-0.542216	0.872415	1.15763	-0.655444	0.846109	1.11144	-0.600705	0.381355	0.047772	-0.399525	0.680391	1.00128	-0.345371	0.583115	0.353921	-0.360132	0.487084	0.328937	-0.41085	0.442009	0.228909	-0.335952	0.72985	0.747661	-0.467154	0.74339	0.631539	-0.453308	0.648196	0.548263	-0.43275	0.441762	0.0608646	-0.301277	0.849046	1.32421	-0.555519	0.806948	1.25055	-0.554782	0.870236	1.23463	-0.610007	0.858813	1.42373	-0.153105	0.858798	0.95497	-0.19189	0.749866	0.407202	-0.250064	0.749353	1.08634	-0.0544469	0.662038	1.1781	-0.00148232	0.692268	1.04953	-0.0316082	0.593206	1.2724	-0.0185965	0.573397	1.25739	-0.0928307	0.837671	0.248483	-0.158502	0.682011	1.00043	-0.245824	1.05063	0.524007	-0.225841	0.970103	0.496731	-0.176233	0.898114	0.408173	-0.234246	0.91308	0.78581	-0.124947	1.01813	0.78313	-0.141139	1.04735	0.685771	-0.154256	0.883179	0.230619	-0.259159	0.763421	1.36845	-0.063505	0.684677	1.35411	-0.111888	0.66068	1.30199	-0.0385827
72	0.74	0.811873	1.46291	-0.300328	0.946203	1.35623	-0.27988	0.87491	1.43596	-0.447766	0.831023	0.939315	-0.434624	0.254013	0.219436	-0.324263	1.06506	1.20955	-0.478368	0.980535	1.20605	-0.591045	1.10028	1.17312	-0.529371	0.88593	1.16348	-0.653425	0.858615	1.11685	-0.599132	0.335081	0.0518068	-0.400905	0.683911	1.00392	-0.345361	0.553413	0.367496	-0.367878	0.455561	0.346656	-0.41693	0.413513	0.242077	-0.346292	0.722621	0.75389	-0.466495	0.728498	0.638335	-0.455319	0.627171	0.561833	-0.434486	0.397748	0.0633317	-0.304013	0.856295	1.33017	-0.554251	0.814309	1.257	-0.555825	0.881025	1.24133	-0.607573	0.858209	1.42814	-0.152765	0.863593	0.961839	-0.19203	0.791984	0.368109	-0.253763	0.74038	1.09453	-0.0561489	0.653979	1.18873	-0.00572583	0.681369	1.05908	-0.0360865	0.588267	1.28477	-0.0240827	0.569846	1.27085	-0.0990716	0.904364	0.224479	-0.164283	0.685644	1.00628	-0.245524	1.07316	0.527675	-0.225744	0.997073	0.489017	-0.17771	0.938729	0.391811	-0.237198	0.918687	0.79674	-0.122945	1.02252	0.794546	-0.140709	1.05217	0.697186	-0.155381	0.95427	0.216542	-0.264685	0.761473	1.37618	-0.0645822	0.684279	1.36361	-0.115346	0.657619	1.31221	-0.0422439
73	0.75	0.813004	1.4668	-0.300737	0.946593	1.36055	-0.277678	0.877937	1.44077	-0.445535	0.833935	0.941072	-0.434038	0.235433	0.243737	-0.335052	1.0657	1.22504	-0.470919	0.988174	1.21611	-0.585729	1.10629	1.18979	-0.516888	0.897686	1.16891	-0.651437	0.869635	1.12187	-0.597727	0.291484	0.0617053	-0.402824	0.687184	1.00753	-0.345903	0.529842	0.382123	-0.374733	0.430214	0.364926	-0.422393	0.389486	0.256588	-0.356058	0.716524	0.760406	-0.466668	0.715725	0.645583	-0.457376	0.610032	0.575991	-0.435023	0.35619	0.0688603	-0.308144	0.864007	1.33636	-0.553154	0.821856	1.26351	-0.555972	0.890048	1.24744	-0.605197	0.857812	1.43203	-0.152702	0.867453	0.967842	-0.192035	0.837648	0.330659	-0.25733	0.733458	1.10246	-0.0579192	0.647579	1.19847	-0.00952682	0.67295	1.0681	-0.0404486	0.584335	1.29545	-0.028826	0.567238	1.28247	-0.104464	0.97114	0.204503	-0.170559	0.689516	1.01203	-0.245767	1.09363	0.529031	-0.224837	1.02341	0.479687	-0.178493	0.979665	0.376356	-0.23977	0.92289	0.804971	-0.121699	1.02612	0.802042	-0.140021	1.05603	0.704835	-0.155855	1.02308	0.208367	-0.270272	0.759778	1.38398	-0.0660795	0.683882	1.37221	-0.118642	0.654981	1.32132	-0.0453759
74	0.76	0.813939	1.46978	-0.301191	0.947402	1.36433	-0.275785	0.880489	1.44463	-0.443341	0.836556	0.943075	-0.433299	0.222366	0.270647	-0.344953	1.06497	1.23787	-0.464021	0.994292	1.22428	-0.581849	1.10982	1.20408	-0.50496	0.907444	1.17356	-0.649674	0.878881	1.12616	-0.59659	0.249992	0.0790469	-0.405273	0.690087	1.01188	-0.346779	0.512241	0.395659	-0.378476	0.411919	0.382352	-0.426776	0.368858	0.272073	-0.363394	0.711896	0.766991	-0.467464	0.706147	0.65246	-0.4589	0.598284	0.588239	-0.434907	0.314708	0.0782583	-0.313095	0.871725	1.34241	-0.552036	0.829122	1.26955	-0.555437	0.897383	1.2526	-0.603264	0.85776	1.43522	-0.152677	0.870149	0.972356	-0.192402	0.885376	0.294674	-0.260409	0.728471	1.10973	-0.0596671	0.64268	1.2069	-0.0125944	0.66702	1.07612	-0.0441195	0.581364	1.30433	-0.0326744	0.565692	1.2919	-0.108816	1.03716	0.188472	-0.177045	0.692989	1.0171	-0.246488	1.11126	0.527911	-0.223257	1.04824	0.468677	-0.178414	1.01972	0.36151	-0.241614	0.92545	0.809989	-0.12145	1.02909	0.80606	-0.139456	1.05908	0.708318	-0.155725	1.08827	0.205171	-0.275789	0.758736	1.39128	-0.0676279	0.683959	1.37936	-0.121652	0.652652	1.32936	-0.0480656
75	0.77	0.81497	1.47186	-0.301564	0.948674	1.36746	-0.274223	0.882666	1.44763	-0.441371	0.838652	0.945288	-0.432684	0.213336	0.299373	-0.352451	1.06469	1.24772	-0.456546	0.998827	1.23022	-0.579144	1.11126	1.21531	-0.494222	0.914864	1.17721	-0.648269	0.885742	1.1296	-0.595659	0.210595	0.104083	-0.407934	0.692584	1.01637	-0.347736	0.499841	0.406417	-0.378969	0.400242	0.397959	-0.429911	0.350566	0.288244	-0.367559	0.709666	0.772829	-0.468309	0.701491	0.657755	-0.459054	0.593001	0.596295	-0.434993	0.272188	0.0930133	-0.317616	0.87834	1.3475	-0.550847	0.83493	1.27427	-0.554509	0.902999	1.25666	-0.60186	0.85823	1.43768	-0.152447	0.871673	0.975095	-0.193271	0.933723	0.26005	-0.262716	0.725496	1.11577	-0.0613094	0.639485	1.21368	-0.0147057	0.66375	1.08256	-0.0467163	0.57962	1.31134	-0.035472	0.565559	1.29891	-0.111946	1.1011	0.176826	-0.183261	0.69561	1.02122	-0.247422	1.12511	0.523746	-0.221306	1.07049	0.455651	-0.177508	1.05753	0.346682	-0.242617	0.926471	0.812094	-0.121781	1.03118	0.806994	-0.139084	1.06029	0.707141	-0.1552	1.14839	0.206041	-0.280918	0.758715	1.39722	-0.0686786	0.685006	1.38459	-0.12404	0.651045	1.3362	-0.0502487
76	0.78	0.81642	1.47325	-0.30166	0.950243	1.36983	-0.272987	0.884651	1.4499	-0.439915	0.840391	0.947658	-0.432274	0.206307	0.329668	-0.357506	1.06591	1.25412	-0.448408	1.00153	1.23392	-0.576917	1.11112	1.2229	-0.485536	0.919572	1.17973	-0.647238	0.889586	1.13216	-0.594868	0.174593	0.135759	-0.410253	0.694699	1.0204	-0.348623	0.491834	0.414069	-0.377583	0.393812	0.411764	-0.431884	0.334234	0.305567	-0.369219	0.71083	0.776441	-0.468582	0.702864	0.66018	-0.457182	0.594163	0.599165	-0.435606	0.230554	0.114975	-0.320425	0.882705	1.3508	-0.549706	0.838225	1.27693	-0.55341	0.906673	1.2596	-0.600885	0.85931	1.43946	-0.151934	0.872286	0.97626	-0.194346	0.980941	0.227611	-0.263948	0.724777	1.12004	-0.0627601	0.63848	1.21846	-0.0157495	0.66333	1.08687	-0.0482169	0.579459	1.31621	-0.0370038	0.567026	1.30333	-0.113632	1.16052	0.170013	-0.18863	0.697371	1.02439	-0.248243	1.13452	0.516024	-0.219599	1.08924	0.440576	-0.176197	1.09162	0.331619	-0.242975	0.926125	0.811662	-0.121867	1.03162	0.804151	-0.138568	1.05788	0.700744	-0.154711	1.2014	0.210187	-0.285295	0.759771	1.40107	-0.0688258	0.687104	1.38763	-0.125425	0.650811	1.34143	-0.0516112
77	0.79	0.818403	1.47427	-0.301284	0.951825	1.37132	-0.27205	0.886609	1.45142	-0.439087	0.84222	0.950055	-0.432108	0.200072	0.361985	-0.36128	1.06815	1.25644	-0.440745	1.00212	1.23536	-0.57465	1.10976	1.22631	-0.479473	0.921242	1.18109	-0.6465	0.890022	1.13385	-0.594263	0.144173	0.172337	-0.411835	0.696564	1.02359	-0.349432	0.487794	0.41944	-0.375815	0.391331	0.424524	-0.432886	0.320531	0.325001	-0.369663	0.715615	0.776661	-0.468071	0.709755	0.659352	-0.453503	0.600694	0.597524	-0.436421	0.193691	0.145057	-0.32103	0.884355	1.35195	-0.548817	0.838802	1.2775	-0.552173	0.908097	1.26144	-0.60026	0.860958	1.4406	-0.151245	0.872417	0.976382	-0.195203	1.02447	0.199094	-0.264043	0.726566	1.12215	-0.0639164	0.640122	1.22084	-0.015733	0.665772	1.08874	-0.0487898	0.581069	1.31851	-0.0370066	0.569859	1.30504	-0.113628	1.21198	0.167574	-0.192683	0.698594	1.02652	-0.248815	1.13941	0.504998	-0.218806	1.10388	0.424277	-0.175054	1.12038	0.316866	-0.243029	0.92414	0.80822	-0.121072	1.02931	0.795814	-0.137495	1.05053	0.688847	-0.154631	1.24491	0.216268	-0.288686	0.761657	1.40267	-0.0680155	0.689843	1.38852	-0.125589	0.652373	1.34442	-0.051699
